<mxfile host="app.diagrams.net" modified="2021-10-22T04:02:00.112Z" agent="5.0 (Macintosh; Intel Mac OS X 10_15_7) AppleWebKit/605.1.15 (KHTML, like Gecko) Version/15.0 Safari/605.1.15" etag="3WYSlbpxL_F1mHJtIMxC" version="15.5.7" type="github">
  <diagram id="0QmZglUaIkajar8YGkxD" name="Page-1">
    <mxGraphModel dx="902" dy="612" grid="1" gridSize="10" guides="1" tooltips="1" connect="1" arrows="1" fold="1" page="1" pageScale="1" pageWidth="827" pageHeight="1169" math="0" shadow="0">
      <root>
        <mxCell id="0" />
        <mxCell id="1" parent="0" />
        <mxCell id="CGvX8kwycKjGCLBifwq8-1" value="" style="rounded=0;whiteSpace=wrap;html=1;" vertex="1" parent="1">
          <mxGeometry x="60" y="80" width="660" height="340" as="geometry" />
        </mxCell>
        <mxCell id="CGvX8kwycKjGCLBifwq8-2" value="&lt;font style=&quot;font-size: 18px&quot;&gt;&lt;b&gt;作业队列管理&lt;/b&gt;&lt;/font&gt;" style="rounded=0;whiteSpace=wrap;html=1;strokeColor=none;" vertex="1" parent="1">
          <mxGeometry x="70" y="90" width="110" height="30" as="geometry" />
        </mxCell>
        <mxCell id="CGvX8kwycKjGCLBifwq8-13" value="&lt;font color=&quot;#009900&quot;&gt;新增作业&lt;/font&gt;" style="rounded=1;whiteSpace=wrap;html=1;fontSize=14;fontColor=#000000;strokeColor=#009900;fillColor=#CCFFFF;strokeWidth=1;" vertex="1" parent="1">
          <mxGeometry x="75" y="130" width="90" height="30" as="geometry" />
        </mxCell>
        <mxCell id="CGvX8kwycKjGCLBifwq8-14" value="" style="shape=table;html=1;whiteSpace=wrap;startSize=0;container=1;collapsible=0;childLayout=tableLayout;" vertex="1" parent="1">
          <mxGeometry x="80" y="180" width="350" height="120" as="geometry" />
        </mxCell>
        <mxCell id="CGvX8kwycKjGCLBifwq8-15" value="" style="shape=partialRectangle;html=1;whiteSpace=wrap;collapsible=0;dropTarget=0;pointerEvents=0;fillColor=none;top=0;left=0;bottom=0;right=0;points=[[0,0.5],[1,0.5]];portConstraint=eastwest;" vertex="1" parent="CGvX8kwycKjGCLBifwq8-14">
          <mxGeometry width="350" height="40" as="geometry" />
        </mxCell>
        <mxCell id="CGvX8kwycKjGCLBifwq8-16" value="序号" style="shape=partialRectangle;html=1;whiteSpace=wrap;connectable=0;fillColor=none;top=0;left=0;bottom=0;right=0;overflow=hidden;pointerEvents=1;" vertex="1" parent="CGvX8kwycKjGCLBifwq8-15">
          <mxGeometry width="50" height="40" as="geometry">
            <mxRectangle width="50" height="40" as="alternateBounds" />
          </mxGeometry>
        </mxCell>
        <mxCell id="CGvX8kwycKjGCLBifwq8-17" value="队列名" style="shape=partialRectangle;html=1;whiteSpace=wrap;connectable=0;fillColor=none;top=0;left=0;bottom=0;right=0;overflow=hidden;pointerEvents=1;" vertex="1" parent="CGvX8kwycKjGCLBifwq8-15">
          <mxGeometry x="50" width="80" height="40" as="geometry">
            <mxRectangle width="80" height="40" as="alternateBounds" />
          </mxGeometry>
        </mxCell>
        <mxCell id="CGvX8kwycKjGCLBifwq8-18" value="队列最小内存" style="shape=partialRectangle;html=1;whiteSpace=wrap;connectable=0;fillColor=none;top=0;left=0;bottom=0;right=0;overflow=hidden;pointerEvents=1;" vertex="1" parent="CGvX8kwycKjGCLBifwq8-15">
          <mxGeometry x="130" width="80" height="40" as="geometry">
            <mxRectangle width="80" height="40" as="alternateBounds" />
          </mxGeometry>
        </mxCell>
        <mxCell id="CGvX8kwycKjGCLBifwq8-27" value="队列最大内存" style="shape=partialRectangle;html=1;whiteSpace=wrap;connectable=0;fillColor=none;top=0;left=0;bottom=0;right=0;overflow=hidden;pointerEvents=1;" vertex="1" parent="CGvX8kwycKjGCLBifwq8-15">
          <mxGeometry x="210" width="80" height="40" as="geometry">
            <mxRectangle width="80" height="40" as="alternateBounds" />
          </mxGeometry>
        </mxCell>
        <mxCell id="CGvX8kwycKjGCLBifwq8-30" value="删除队列" style="shape=partialRectangle;html=1;whiteSpace=wrap;connectable=0;fillColor=none;top=0;left=0;bottom=0;right=0;overflow=hidden;pointerEvents=1;" vertex="1" parent="CGvX8kwycKjGCLBifwq8-15">
          <mxGeometry x="290" width="60" height="40" as="geometry">
            <mxRectangle width="60" height="40" as="alternateBounds" />
          </mxGeometry>
        </mxCell>
        <mxCell id="CGvX8kwycKjGCLBifwq8-19" value="" style="shape=partialRectangle;html=1;whiteSpace=wrap;collapsible=0;dropTarget=0;pointerEvents=0;fillColor=none;top=0;left=0;bottom=0;right=0;points=[[0,0.5],[1,0.5]];portConstraint=eastwest;" vertex="1" parent="CGvX8kwycKjGCLBifwq8-14">
          <mxGeometry y="40" width="350" height="40" as="geometry" />
        </mxCell>
        <mxCell id="CGvX8kwycKjGCLBifwq8-20" value="1" style="shape=partialRectangle;html=1;whiteSpace=wrap;connectable=0;fillColor=none;top=0;left=0;bottom=0;right=0;overflow=hidden;pointerEvents=1;" vertex="1" parent="CGvX8kwycKjGCLBifwq8-19">
          <mxGeometry width="50" height="40" as="geometry">
            <mxRectangle width="50" height="40" as="alternateBounds" />
          </mxGeometry>
        </mxCell>
        <mxCell id="CGvX8kwycKjGCLBifwq8-21" value="&lt;span style=&quot;white-space: pre&quot;&gt;alert queue&lt;/span&gt;" style="shape=partialRectangle;html=1;whiteSpace=wrap;connectable=0;fillColor=none;top=0;left=0;bottom=0;right=0;overflow=hidden;pointerEvents=1;" vertex="1" parent="CGvX8kwycKjGCLBifwq8-19">
          <mxGeometry x="50" width="80" height="40" as="geometry">
            <mxRectangle width="80" height="40" as="alternateBounds" />
          </mxGeometry>
        </mxCell>
        <mxCell id="CGvX8kwycKjGCLBifwq8-22" value="" style="shape=partialRectangle;html=1;whiteSpace=wrap;connectable=0;fillColor=none;top=0;left=0;bottom=0;right=0;overflow=hidden;pointerEvents=1;" vertex="1" parent="CGvX8kwycKjGCLBifwq8-19">
          <mxGeometry x="130" width="80" height="40" as="geometry">
            <mxRectangle width="80" height="40" as="alternateBounds" />
          </mxGeometry>
        </mxCell>
        <mxCell id="CGvX8kwycKjGCLBifwq8-28" style="shape=partialRectangle;html=1;whiteSpace=wrap;connectable=0;fillColor=none;top=0;left=0;bottom=0;right=0;overflow=hidden;pointerEvents=1;" vertex="1" parent="CGvX8kwycKjGCLBifwq8-19">
          <mxGeometry x="210" width="80" height="40" as="geometry">
            <mxRectangle width="80" height="40" as="alternateBounds" />
          </mxGeometry>
        </mxCell>
        <mxCell id="CGvX8kwycKjGCLBifwq8-31" style="shape=partialRectangle;html=1;whiteSpace=wrap;connectable=0;fillColor=none;top=0;left=0;bottom=0;right=0;overflow=hidden;pointerEvents=1;" vertex="1" parent="CGvX8kwycKjGCLBifwq8-19">
          <mxGeometry x="290" width="60" height="40" as="geometry">
            <mxRectangle width="60" height="40" as="alternateBounds" />
          </mxGeometry>
        </mxCell>
        <mxCell id="CGvX8kwycKjGCLBifwq8-23" value="" style="shape=partialRectangle;html=1;whiteSpace=wrap;collapsible=0;dropTarget=0;pointerEvents=0;fillColor=none;top=0;left=0;bottom=0;right=0;points=[[0,0.5],[1,0.5]];portConstraint=eastwest;" vertex="1" parent="CGvX8kwycKjGCLBifwq8-14">
          <mxGeometry y="80" width="350" height="40" as="geometry" />
        </mxCell>
        <mxCell id="CGvX8kwycKjGCLBifwq8-24" value="2" style="shape=partialRectangle;html=1;whiteSpace=wrap;connectable=0;fillColor=none;top=0;left=0;bottom=0;right=0;overflow=hidden;pointerEvents=1;" vertex="1" parent="CGvX8kwycKjGCLBifwq8-23">
          <mxGeometry width="50" height="40" as="geometry">
            <mxRectangle width="50" height="40" as="alternateBounds" />
          </mxGeometry>
        </mxCell>
        <mxCell id="CGvX8kwycKjGCLBifwq8-25" value="commqueue" style="shape=partialRectangle;html=1;whiteSpace=wrap;connectable=0;fillColor=none;top=0;left=0;bottom=0;right=0;overflow=hidden;pointerEvents=1;" vertex="1" parent="CGvX8kwycKjGCLBifwq8-23">
          <mxGeometry x="50" width="80" height="40" as="geometry">
            <mxRectangle width="80" height="40" as="alternateBounds" />
          </mxGeometry>
        </mxCell>
        <mxCell id="CGvX8kwycKjGCLBifwq8-26" value="" style="shape=partialRectangle;html=1;whiteSpace=wrap;connectable=0;fillColor=none;top=0;left=0;bottom=0;right=0;overflow=hidden;pointerEvents=1;" vertex="1" parent="CGvX8kwycKjGCLBifwq8-23">
          <mxGeometry x="130" width="80" height="40" as="geometry">
            <mxRectangle width="80" height="40" as="alternateBounds" />
          </mxGeometry>
        </mxCell>
        <mxCell id="CGvX8kwycKjGCLBifwq8-29" style="shape=partialRectangle;html=1;whiteSpace=wrap;connectable=0;fillColor=none;top=0;left=0;bottom=0;right=0;overflow=hidden;pointerEvents=1;" vertex="1" parent="CGvX8kwycKjGCLBifwq8-23">
          <mxGeometry x="210" width="80" height="40" as="geometry">
            <mxRectangle width="80" height="40" as="alternateBounds" />
          </mxGeometry>
        </mxCell>
        <mxCell id="CGvX8kwycKjGCLBifwq8-32" style="shape=partialRectangle;html=1;whiteSpace=wrap;connectable=0;fillColor=none;top=0;left=0;bottom=0;right=0;overflow=hidden;pointerEvents=1;" vertex="1" parent="CGvX8kwycKjGCLBifwq8-23">
          <mxGeometry x="290" width="60" height="40" as="geometry">
            <mxRectangle width="60" height="40" as="alternateBounds" />
          </mxGeometry>
        </mxCell>
        <mxCell id="CGvX8kwycKjGCLBifwq8-39" value="&lt;font color=&quot;#009900&quot;&gt;&lt;span&gt;删除&lt;/span&gt;&lt;/font&gt;" style="rounded=1;whiteSpace=wrap;html=1;fontSize=14;fontColor=#000000;strokeColor=#009900;fillColor=#CCFFFF;strokeWidth=1;" vertex="1" parent="1">
          <mxGeometry x="380" y="230" width="45" height="20" as="geometry" />
        </mxCell>
        <mxCell id="CGvX8kwycKjGCLBifwq8-40" value="&lt;font color=&quot;#009900&quot;&gt;&lt;span&gt;删除&lt;/span&gt;&lt;/font&gt;" style="rounded=1;whiteSpace=wrap;html=1;fontSize=14;fontColor=#000000;strokeColor=#009900;fillColor=#CCFFFF;strokeWidth=1;" vertex="1" parent="1">
          <mxGeometry x="380" y="270" width="45" height="20" as="geometry" />
        </mxCell>
      </root>
    </mxGraphModel>
  </diagram>
</mxfile>
